<?xml version="1.0" standalone="no"?>
<!DOCTYPE svg PUBLIC "-//W3C//DTD SVG 20010904//EN"
 "http://www.w3.org/TR/2001/REC-SVG-20010904/DTD/svg10.dtd">
<svg version="1.0" xmlns="http://www.w3.org/2000/svg"
 width="1707.000000pt" height="1707.000000pt" viewBox="0 0 1707.000000 1707.000000"
 preserveAspectRatio="xMidYMid meet">
<metadata>
Created by potrace 1.14, written by Peter Selinger 2001-2017
</metadata>
<g transform="translate(0.000000,1707.000000) scale(0.100000,-0.100000)"
fill="#000000" stroke="none">
<path d="M7365 16800 c-22 -43 -19 -83 11 -115 l26 -28 -36 6 c-20 3 -38 2
-40 -2 -8 -13 84 -122 204 -241 136 -135 203 -194 313 -274 101 -72 166 -105
284 -144 72 -24 394 -108 483 -127 8 -2 69 -15 135 -29 216 -48 299 -66 335
-71 19 -4 55 -11 80 -16 37 -8 504 -99 590 -114 148 -27 579 -118 739 -156
259 -62 669 -210 1025 -369 25 -11 66 -29 90 -40 537 -239 851 -365 1210 -485
447 -149 591 -204 856 -322 381 -171 640 -314 1115 -617 280 -180 303 -190
846 -365 204 -65 299 -105 372 -157 124 -89 58 6 -157 224 -55 56 -96 102 -90
102 18 0 183 -160 245 -237 31 -39 69 -97 84 -128 l28 -56 -67 -177 c-37 -97
-71 -186 -76 -197 -5 -11 -18 -45 -29 -75 -10 -30 -67 -181 -125 -335 -160
-420 -355 -940 -388 -1030 -15 -44 -32 -89 -38 -100 -5 -11 -61 -162 -126
-335 -335 -906 -334 -903 -452 -1150 -27 -58 -93 -199 -147 -315 -175 -376
-281 -587 -379 -754 -53 -90 -96 -165 -96 -167 0 -1 -20 -37 -45 -78 -25 -42
-45 -78 -45 -81 0 -2 -13 -26 -29 -53 -16 -27 -50 -89 -76 -138 -26 -49 -65
-120 -85 -159 -172 -319 -429 -861 -561 -1180 -28 -66 -54 -129 -59 -140 -35
-78 -222 -596 -217 -602 2 -2 15 17 28 41 13 25 25 43 27 41 6 -6 -37 -90 -95
-187 -29 -48 -53 -89 -53 -92 0 -2 -43 -93 -96 -202 -53 -110 -112 -233 -132
-274 -35 -73 -62 -116 -233 -370 -172 -254 -306 -499 -367 -670 -40 -111 -70
-227 -78 -292 -3 -30 -18 -77 -35 -108 -16 -30 -61 -118 -100 -195 -39 -77
-83 -159 -97 -183 l-25 -43 -17 39 c-29 64 -23 66 -155 -43 -313 -259 -619
-697 -986 -1412 -46 -90 -87 -163 -91 -163 -5 0 -35 18 -67 40 -205 140 -789
362 -1406 534 -282 79 -425 124 -635 199 -196 70 -209 77 -226 109 -22 43
-137 152 -213 202 -121 80 -227 127 -511 226 -493 172 -594 232 -795 472 -16
19 -52 52 -79 72 -44 33 -410 256 -421 256 -2 0 -30 15 -63 34 -142 84 -705
369 -937 476 -141 65 -433 193 -550 242 -66 28 -138 58 -160 68 -91 40 -419
170 -895 353 -1214 469 -1423 552 -1865 740 -336 143 -512 228 -627 303 -225
145 -271 309 -130 457 63 65 115 91 186 89 53 -1 176 -27 227 -47 18 -7 133
109 126 129 -2 6 -29 31 -61 55 -76 57 -89 79 -91 154 -2 72 18 139 71 236 90
164 314 401 491 520 80 54 81 55 211 21 87 -23 123 -21 155 7 30 27 49 78 38
105 -20 53 -117 128 -289 225 l-53 30 73 94 c103 131 299 407 343 481 8 14 49
79 115 183 8 13 44 72 79 132 173 290 206 342 248 391 54 62 97 92 173 117 84
28 124 23 241 -31 103 -48 167 -60 190 -37 40 40 39 160 -2 212 -11 15 -80 87
-153 161 -72 74 -140 152 -150 174 -52 111 51 340 253 566 35 39 42 43 53 30
29 -35 130 -109 164 -120 101 -34 188 30 199 145 2 26 -20 85 -48 127 -32 49
-98 90 -164 103 -18 4 -33 11 -33 16 0 11 87 272 134 404 83 230 160 341 272
390 61 27 135 32 209 15 22 -5 51 -11 65 -14 14 -2 49 -10 79 -16 126 -28 219
8 265 103 51 104 25 142 -171 246 -156 83 -180 102 -189 149 -14 71 -9 147 13
236 48 188 152 307 258 293 22 -3 128 -44 234 -92 192 -85 227 -96 219 -72 -3
6 -13 36 -22 65 -23 68 -78 141 -151 197 -31 25 -60 45 -64 45 -12 1 -78 65
-90 88 -36 68 30 219 200 462 185 263 191 351 25 335 -121 -12 -175 -31 -245
-84 l-34 -26 5 78 c6 100 18 115 216 274 147 119 150 121 121 74 -16 -27 -29
-52 -29 -58 0 -5 28 -15 63 -22 66 -13 75 -17 295 -122 224 -108 292 -126 367
-95 49 21 104 64 120 96 16 32 12 97 -9 137 -31 60 -137 147 -284 232 -40 24
-76 49 -79 57 -9 24 405 581 505 677 l40 39 113 0 c63 1 120 3 127 6 23 8 12
57 -27 124 -35 60 -37 67 -22 80 60 54 188 204 313 368 106 138 159 194 200
209 26 10 172 7 233 -4 17 -3 56 -15 87 -26 68 -25 97 -20 121 21 23 39 28 62
29 133 0 67 -17 99 -99 184 -129 133 -147 171 -128 268 7 33 10 65 8 72 -7 18
-92 50 -178 66 -60 12 -130 15 -280 12 -110 -2 -216 -6 -235 -10 -19 -3 -66
-10 -105 -16 -38 -6 -79 -13 -90 -15 -11 -2 -33 -7 -50 -10 -123 -22 -300 -82
-379 -128 -119 -70 -158 -222 -112 -441 2 -11 12 -58 22 -105 27 -126 25 -234
-4 -290 -54 -104 -123 -152 -306 -214 -256 -87 -310 -126 -379 -269 -52 -109
-56 -131 -50 -300 8 -207 7 -231 -17 -277 -22 -44 -70 -80 -152 -114 -191 -79
-286 -187 -346 -391 -35 -121 -45 -297 -23 -421 6 -33 12 -70 15 -84 2 -14 7
-42 11 -63 7 -35 2 -45 -75 -162 -47 -71 -90 -125 -99 -126 -9 0 -70 -2 -136
-4 -222 -6 -352 -83 -441 -262 l-38 -76 -2 -172 c-1 -94 -7 -189 -13 -211 -14
-51 -60 -95 -186 -176 -157 -101 -238 -202 -293 -368 -64 -192 -81 -265 -72
-307 13 -60 20 -103 27 -165 7 -68 -10 -102 -60 -123 -30 -12 -164 -42 -225
-50 -15 -2 -58 -11 -97 -19 -178 -38 -261 -91 -316 -199 -28 -53 -30 -67 -34
-177 -6 -149 27 -291 100 -440 58 -117 78 -150 92 -150 13 0 105 140 144 220
43 87 57 174 59 355 0 39 2 41 63 74 72 40 191 126 226 165 14 14 28 26 33 26
8 0 -16 -45 -95 -180 -27 -47 -61 -105 -75 -130 -14 -25 -48 -85 -77 -135 -29
-49 -107 -183 -173 -296 -121 -206 -146 -247 -265 -434 -165 -257 -230 -355
-234 -351 -2 2 32 64 75 137 132 224 233 401 230 404 -6 5 -189 -54 -282 -91
-189 -76 -327 -156 -412 -242 -44 -43 -54 -61 -69 -119 -25 -96 -31 -298 -12
-389 23 -106 103 -260 131 -251 6 2 31 38 56 80 62 105 66 104 18 -3 -22 -51
-54 -149 -70 -219 -83 -349 -93 -369 -210 -437 -149 -86 -188 -104 -188 -89 0
8 5 17 10 20 18 11 60 104 50 110 -22 13 -149 31 -200 28 -219 -13 -423 -182
-500 -411 -28 -84 -34 -131 -32 -226 2 -134 49 -247 143 -343 55 -56 84 -66
94 -33 10 33 22 23 38 -32 17 -60 15 -62 -57 -100 l-39 -20 7 28 7 27 -133 -6
c-173 -8 -237 -21 -328 -65 -85 -41 -175 -123 -210 -192 -53 -105 -60 -140
-57 -324 l2 -174 40 -77 c61 -119 76 -126 263 -115 48 3 56 0 80 -25 73 -78
175 -203 223 -272 29 -43 59 -84 65 -91 24 -24 28 -56 8 -67 -64 -35 -96 -97
-96 -188 0 -233 176 -626 366 -819 137 -140 239 -188 656 -314 301 -91 735
-239 835 -284 11 -5 71 -30 133 -55 140 -57 332 -140 466 -203 183 -85 700
-348 811 -412 17 -10 66 -37 110 -60 141 -76 666 -374 805 -458 70 -42 298
-173 400 -230 25 -14 80 -45 123 -69 136 -77 270 -149 522 -283 55 -29 129
-69 165 -89 36 -19 67 -36 70 -36 3 0 16 -7 30 -15 195 -110 1212 -614 1690
-837 124 -58 257 -120 295 -138 101 -48 364 -166 550 -247 88 -38 174 -76 190
-83 17 -7 68 -29 115 -48 47 -19 119 -49 160 -67 69 -29 126 -52 385 -153 321
-126 722 -255 970 -313 39 -9 170 -35 205 -40 19 -3 46 -7 60 -10 14 -2 76 -7
139 -9 135 -6 140 -7 211 -55 53 -36 239 -140 274 -153 14 -6 11 6 -15 50 -78
139 -102 187 -104 217 -2 25 -6 30 -24 28 -11 -2 -21 0 -21 5 0 16 38 70 129
183 51 63 98 125 104 138 5 12 14 22 18 22 4 0 -34 -73 -86 -162 -51 -90 -96
-173 -100 -186 -5 -17 2 -30 32 -58 45 -43 177 -131 249 -167 l52 -26 35 92
c44 116 49 130 53 142 10 42 275 734 327 855 6 14 11 27 11 30 2 9 98 233 127
298 16 34 29 65 29 68 0 3 12 31 26 62 15 31 34 75 44 97 10 22 29 65 43 95
14 30 45 100 70 155 25 55 67 147 95 205 27 58 88 186 135 285 171 362 413
855 927 1890 210 424 422 851 470 950 324 666 389 801 552 1155 93 202 220
461 278 565 18 33 85 152 148 264 226 403 459 852 587 1131 130 283 158 341
551 1120 253 500 382 782 481 1045 70 187 127 365 148 465 36 164 69 288 85
319 11 22 49 84 84 138 129 199 190 341 190 440 -1 51 -29 111 -81 168 -10 11
-36 43 -57 70 -22 28 -56 68 -75 91 -20 22 -61 69 -91 104 -30 35 -77 89 -104
119 -68 78 -93 106 -156 181 -30 36 -59 70 -65 76 -5 6 -28 33 -50 60 -128
156 -295 322 -397 398 -43 31 -80 56 -83 56 -3 0 -35 19 -72 43 -38 24 -81 50
-98 58 -109 55 -399 222 -545 314 -153 96 -139 87 -328 207 -1167 742 -2469
1335 -3722 1696 -140 41 -409 113 -440 119 -14 2 -51 11 -83 19 -54 14 -444
99 -497 109 -14 2 -88 18 -165 34 -77 16 -151 32 -165 34 -14 3 -93 19 -176
36 -83 17 -166 33 -185 36 -19 3 -62 12 -97 19 -83 17 -67 3 28 -24 41 -11 84
-25 95 -29 21 -9 186 -59 219 -66 11 -3 40 -11 65 -19 51 -17 181 -55 621
-182 373 -108 857 -254 905 -273 11 -4 94 -32 185 -62 320 -104 516 -180 870
-336 285 -126 347 -166 89 -58 -223 94 -1081 381 -1869 625 -74 23 -162 51
-195 61 -147 48 -1073 324 -1285 384 -129 36 -257 72 -285 80 -50 15 -152 42
-190 51 -11 2 -56 15 -100 28 -67 21 -74 25 -45 26 25 1 -32 23 -200 79 -296
99 -647 238 -813 322 -21 10 -40 19 -42 19 -2 0 -11 -13 -20 -30z m-1326 -749
c90 -47 65 -129 -84 -270 l-77 -74 -20 32 c-11 17 -25 31 -31 31 -7 0 -56 -70
-111 -155 -54 -85 -100 -155 -103 -155 -2 0 18 44 46 98 52 101 84 171 106
231 8 20 23 61 34 91 12 30 24 78 27 106 l6 52 -65 48 c-37 27 -66 52 -67 55
0 11 297 -69 339 -90z m45 -443 c-8 -13 -144 -177 -177 -213 -10 -11 -44 -51
-75 -90 -31 -38 -59 -72 -62 -75 -13 -11 -181 -222 -251 -315 -110 -145 -272
-372 -369 -515 -46 -69 -94 -140 -107 -159 -32 -47 -29 -29 7 35 99 181 385
590 534 765 17 19 40 46 51 60 52 64 267 313 335 389 42 47 85 95 96 108 20
24 29 29 18 10z m-728 -637 c-10 -101 -87 -264 -169 -357 -42 -47 -58 -55 -52
-25 13 68 16 115 8 106 -15 -15 -129 -183 -571 -840 -101 -150 -163 -236 -121
-165 9 14 36 59 61 100 46 77 182 299 247 403 20 32 41 66 46 77 114 201 516
750 550 750 3 0 3 -22 1 -49z m-1364 -2314 c-49 -104 -141 -255 -167 -277 -12
-10 -17 -2 -30 43 -26 88 -22 136 15 206 30 55 76 97 125 112 6 2 30 13 55 25
62 30 62 16 2 -109z m12328 27 c0 -8 -5 -12 -10 -9 -6 4 -8 11 -5 16 9 14 15
11 15 -7z m97 -151 c-3 -54 -8 -105 -11 -113 -3 -8 -7 -31 -10 -50 -24 -169
-152 -554 -384 -1160 -171 -446 -208 -559 -315 -951 -64 -235 -65 -238 -175
-450 -60 -118 -147 -286 -192 -374 -135 -263 -259 -503 -325 -630 -294 -565
-295 -568 -290 -626 14 -164 14 -167 -43 -251 -28 -42 -57 -80 -63 -84 -7 -4
-9 -3 -6 3 4 6 9 28 12 49 4 22 8 46 10 54 2 8 7 38 10 65 4 28 9 64 12 80 3
17 6 44 8 60 2 17 6 48 8 70 3 22 15 119 27 215 11 96 29 236 40 310 11 74 23
151 25 170 13 83 66 330 83 387 24 77 15 73 -28 -9 -37 -72 -132 -233 -192
-328 -99 -154 -231 -351 -239 -356 -12 -7 -12 9 0 21 37 40 441 818 566 1090
20 44 50 109 66 144 17 35 32 61 35 58 3 -3 0 -15 -6 -27 -19 -36 -121 -312
-117 -316 12 -12 139 330 130 352 -8 22 62 138 203 330 450 616 694 1065 1014
1869 124 313 127 324 129 453 1 24 6 42 12 42 8 0 10 -29 6 -97z m-12953 -709
c13 -5 12 -13 -11 -53 -54 -94 -185 -252 -199 -238 -9 8 96 201 144 265 24 32
37 37 66 26z m125 -251 c-10 -28 -192 -384 -277 -543 -80 -151 -239 -434 -321
-574 -45 -75 -81 -139 -81 -142 0 -3 -5 -10 -10 -17 -6 -7 -28 -41 -49 -77
-205 -352 -501 -840 -508 -840 -5 0 54 106 68 126 5 6 26 42 47 80 21 38 72
128 114 199 75 131 399 701 446 785 39 70 62 111 182 325 62 110 127 225 143
255 28 51 137 247 185 332 12 20 30 55 42 77 23 47 35 54 19 14z m-1259 -2223
c-6 -11 -13 -20 -16 -20 -2 0 0 9 6 20 6 11 13 20 16 20 2 0 0 -9 -6 -20z
m11910 -944 c-34 -69 -66 -129 -72 -132 -7 -4 -7 0 -1 12 6 11 36 72 68 137
32 64 60 116 62 114 2 -3 -24 -61 -57 -131z m-12483 -33 c-2 -5 -76 -132 -164
-283 -88 -151 -170 -291 -180 -310 -11 -19 -111 -190 -223 -380 -111 -190
-211 -361 -222 -380 -67 -117 -222 -369 -226 -366 -2 3 5 22 16 43 11 21 63
124 115 229 89 178 228 424 345 609 28 44 76 123 108 175 31 52 71 118 89 145
17 28 56 88 85 135 131 210 249 390 256 390 3 0 3 -3 1 -7z m-446 -336 c9 -33
-11 -118 -42 -180 -32 -63 -124 -199 -154 -227 l-26 -25 -18 24 c-10 13 -27
49 -39 81 -34 96 -18 198 49 301 30 47 62 65 144 82 30 6 78 -25 86 -56z
m12703 -129 c-13 -34 -24 -64 -24 -67 0 -2 -2 -2 -5 1 -10 10 37 128 50 128 2
0 -7 -28 -21 -62z m-13348 -757 c-37 -72 -54 -94 -35 -44 15 41 62 124 66 119
2 -2 -12 -36 -31 -75z m-126 -290 c-22 -67 -54 -150 -70 -184 l-29 -62 6 50
c9 78 120 358 130 328 2 -5 -15 -65 -37 -132z m12909 -351 c-60 -121 -112
-220 -114 -220 -7 0 80 181 168 348 90 171 58 94 -54 -128z m405 143 c-21 -33
-243 -412 -365 -625 -46 -82 -87 -148 -90 -148 -11 0 125 255 278 521 78 136
176 279 190 279 3 0 -3 -12 -13 -27z m264 -175 c0 -132 -36 -220 -165 -405
-35 -51 -70 -99 -76 -106 -7 -6 -20 -25 -30 -40 -23 -36 -30 -31 -17 13 6 19
13 62 16 95 7 63 8 72 5 120 l-1 30 -23 -25 c-12 -14 -46 -55 -75 -92 -30 -38
-56 -68 -58 -68 -15 0 195 295 274 385 54 62 147 165 148 165 1 0 2 -32 2 -72z
m-861 -170 c-3 -8 -6 -5 -6 6 -1 11 2 17 5 13 3 -3 4 -12 1 -19z m-25 -50 c-7
-7 -12 -8 -12 -2 0 14 12 26 19 19 2 -3 -1 -11 -7 -17z m-30 -60 c-7 -7 -12
-8 -12 -2 0 14 12 26 19 19 2 -3 -1 -11 -7 -17z m254 -1103 c-40 -118 -72
-215 -71 -215 3 0 32 49 75 125 199 353 204 356 52 35 -27 -58 -64 -136 -82
-175 -18 -38 -67 -140 -108 -225 -41 -85 -96 -200 -122 -255 -26 -55 -86 -179
-133 -275 -46 -96 -116 -240 -155 -320 -269 -559 -996 -2018 -1013 -2035 -5
-5 9 35 31 90 74 178 330 785 350 828 166 368 198 448 206 511 10 81 38 145
184 421 166 315 367 727 471 967 113 261 361 738 384 738 2 0 -29 -97 -69
-215z m-11806 -263 c76 -36 348 -132 770 -272 476 -157 627 -209 687 -236 18
-8 51 -21 73 -29 46 -16 36 -12 305 -131 196 -86 771 -369 970 -477 153 -82
252 -135 345 -185 47 -25 97 -54 112 -64 14 -10 29 -18 32 -18 6 0 413 -225
683 -378 84 -47 151 -88 148 -90 -2 -2 -70 31 -152 74 -316 165 -434 227 -568
299 -836 449 -824 443 -1175 618 -527 264 -755 359 -1295 537 -203 68 -440
147 -525 177 -182 65 -437 170 -447 185 -3 6 -2 9 3 7 5 -3 20 -10 34 -17z
m3655 -810 c-3 -3 -11 0 -18 7 -9 10 -8 11 6 5 10 -3 15 -9 12 -12z m125 -54
c0 -5 -9 -4 -20 2 -11 6 -20 12 -20 14 0 2 9 2 20 -1 11 -3 20 -9 20 -15z
m130 -53 c14 -8 19 -14 10 -14 -8 0 -24 6 -34 14 -25 19 -9 19 24 0z m105 -53
c-3 -3 -11 0 -18 7 -9 10 -8 11 6 5 10 -3 15 -9 12 -12z m64 -28 c14 -12 -19
-1 -35 12 -18 14 -18 14 6 3 14 -6 27 -13 29 -15z m63 -23 c24 -10 63 -28 88
-39 25 -11 221 -98 435 -192 215 -95 408 -180 430 -190 163 -72 220 -97 293
-131 46 -22 85 -39 87 -39 2 0 33 -13 69 -30 98 -45 177 -80 323 -145 73 -33
131 -61 129 -63 -2 -2 -62 22 -132 53 -274 120 -451 198 -499 220 -28 12 -289
129 -581 258 -292 130 -568 254 -615 276 -86 41 -105 56 -27 22z m6111 -339
c11 -14 7 -18 -37 -43 -16 -10 -18 -9 -11 7 4 11 13 34 19 52 8 24 12 28 15
15 2 -10 8 -24 14 -31z m6 -494 c-39 -76 -268 -413 -299 -438 -18 -15 -261
-345 -345 -469 -160 -234 -252 -410 -283 -540 -18 -76 -33 -95 -25 -33 15 122
120 348 255 552 74 111 235 336 263 366 5 6 48 64 95 128 47 65 92 126 100
136 8 10 68 91 134 179 65 89 120 161 123 161 2 0 -6 -19 -18 -42z m-4213 -14
c18 -14 18 -14 -6 -3 -31 14 -36 19 -24 19 6 0 19 -7 30 -16z m-1831 -62 c-3
-3 -11 0 -18 7 -9 10 -8 11 6 5 10 -3 15 -9 12 -12z m2053 -32 c36 -22 44 -37
10 -19 -13 7 -34 18 -48 26 -14 7 -18 13 -10 13 8 0 30 -9 48 -20z m148 -78
c-6 -5 -64 26 -72 39 -4 7 12 2 34 -11 23 -13 40 -25 38 -28z m104 -40 c3 -2
-6 -1 -20 3 -14 4 -32 14 -40 22 -12 12 -7 11 20 -2 19 -10 37 -20 40 -23z
m-877 -213 c70 -24 127 -46 127 -50 0 -13 -334 104 -345 121 -3 4 16 0 43 -10
26 -10 104 -38 175 -61z m3923 -101 c-88 -135 -104 -164 -85 -152 13 7 5 -6
-91 -171 -51 -87 -177 -334 -218 -425 -31 -71 -79 -209 -97 -278 -20 -80 -35
-112 -52 -112 -16 0 -18 36 -2 46 14 8 6 124 -12 174 -17 49 -53 104 -101 156
l-41 45 67 -31 c81 -36 95 -37 130 -9 39 31 356 516 356 545 0 4 -36 -28 -80
-74 -44 -45 -80 -80 -80 -78 0 4 85 116 229 301 87 111 141 175 148 175 1 0
-31 -51 -71 -112z m-2276 -433 c185 -117 285 -176 405 -240 97 -51 135 -75
120 -75 -17 0 -158 37 -210 55 -58 20 -139 73 -244 159 -41 34 -115 94 -165
135 -50 41 -84 72 -76 69 9 -3 85 -50 170 -103z m1626 -578 c16 -8 40 -28 54
-43 l25 -28 -35 27 c-48 37 -76 48 -135 51 -69 4 -77 8 -30 15 44 7 76 1 121
-22z m399 -9 c-1 -18 4 -53 11 -78 8 -25 16 -65 19 -90 5 -37 4 -42 -6 -26
-30 48 -54 226 -31 226 5 0 8 -15 7 -32z m-843 -21 c64 -17 68 -24 15 -32 -50
-8 -80 4 -98 37 -10 19 -9 20 12 14 13 -4 45 -12 71 -19z m-497 -246 c55 -21
137 -53 183 -71 46 -18 81 -34 78 -37 -5 -5 -172 54 -280 99 -39 16 -85 34
-103 39 -43 13 -53 30 -11 18 18 -5 78 -26 133 -48z"/>
<path d="M13235 4588 c-48 -95 -95 -186 -104 -203 -10 -16 -55 -102 -100 -190
-46 -88 -114 -218 -151 -290 -118 -225 -320 -629 -316 -632 6 -6 157 244 300
497 123 218 478 972 463 986 -2 3 -44 -73 -92 -168z"/>
<path d="M8760 16338 c37 -16 364 -98 369 -92 2 2 2 6 -1 9 -5 5 -213 61 -258
69 -14 2 -45 9 -70 15 -56 13 -73 13 -40 -1z"/>
<path d="M8698 14095 c-93 -23 -132 -62 -246 -243 -29 -45 -52 -85 -52 -88 0
-3 -9 -17 -19 -32 -10 -15 -70 -110 -132 -212 -63 -102 -196 -313 -296 -470
-218 -340 -337 -539 -428 -715 -173 -334 -221 -425 -257 -488 -21 -38 -38 -71
-38 -73 0 -9 -132 -217 -170 -269 -21 -27 -76 -92 -123 -144 l-85 -95 14 -45
c7 -24 29 -68 49 -97 117 -170 329 -294 870 -509 302 -120 290 -115 475 -197
115 -51 289 -140 440 -226 161 -92 511 -328 605 -409 99 -85 316 -233 415
-283 117 -59 345 -129 500 -154 19 -3 46 -8 60 -10 14 -3 108 -19 210 -35 102
-17 194 -33 205 -35 61 -13 127 -30 242 -62 203 -57 217 -59 433 -64 l75 -1
-33 -17 -32 -16 45 -46 45 -45 -108 2 c-186 4 -422 -55 -832 -210 -140 -53
-412 -169 -635 -272 -296 -137 -1115 -558 -1350 -695 -22 -13 -69 -40 -105
-60 -148 -84 -415 -243 -490 -292 l-35 -23 46 66 c72 103 125 202 110 207 -9
3 -8 10 4 29 27 41 9 39 -47 -6 -249 -199 -649 -409 -999 -524 -247 -82 -658
-187 -984 -253 -11 -2 -54 -11 -95 -19 -41 -8 -86 -17 -100 -20 -14 -2 -69
-14 -123 -26 -54 -11 -100 -19 -103 -16 -3 2 4 20 14 38 43 77 90 264 87 344
-5 119 -41 205 -117 284 -83 86 -175 145 -453 291 -264 139 -360 212 -410 310
-86 171 -14 300 240 428 211 106 722 255 1215 353 267 54 428 93 620 150 58
17 119 34 135 39 17 4 89 24 160 43 72 20 144 38 160 41 17 3 41 7 55 10 105
20 208 29 345 28 128 0 175 -4 236 -20 120 -32 214 -85 287 -159 34 -36 62
-69 62 -73 0 -5 6 -15 13 -22 7 -7 32 -45 55 -84 136 -228 108 -395 -86 -521
-96 -62 -189 -98 -537 -208 -267 -84 -658 -234 -893 -341 -29 -13 -55 -24 -57
-24 -8 0 -806 -350 -858 -376 -57 -29 -54 -39 20 -67 89 -35 249 -37 455 -7
78 12 144 23 148 25 4 2 42 11 86 20 43 9 85 20 94 25 8 4 29 10 45 13 83 14
708 225 820 277 11 5 67 28 125 52 289 117 463 224 635 389 38 37 71 66 73 64
2 -2 -13 -28 -34 -59 -20 -31 -34 -59 -30 -63 9 -9 93 21 182 64 87 43 158
110 193 183 38 82 39 206 2 316 -64 187 -208 383 -442 598 -169 154 -315 248
-474 301 -44 15 -84 28 -90 29 -96 20 -126 26 -155 31 -68 13 -356 12 -455 0
-55 -7 -125 -16 -155 -20 -30 -4 -118 -20 -195 -36 -119 -24 -171 -36 -315
-73 -89 -23 -328 -96 -460 -141 -277 -95 -576 -191 -760 -245 -389 -115 -593
-196 -707 -281 -56 -42 -123 -135 -228 -314 -124 -212 -214 -334 -335 -455
-51 -52 -209 -227 -252 -280 -113 -140 -102 -314 34 -529 166 -265 404 -488
651 -613 137 -69 352 -128 524 -145 90 -9 289 -8 383 1 41 4 91 9 110 11 67 7
256 35 340 51 47 9 94 17 105 19 76 11 476 87 503 94 39 12 38 9 -38 -72 -55
-59 -76 -98 -87 -162 -35 -194 54 -397 209 -476 108 -55 373 -71 570 -34 16 3
40 7 55 9 164 22 481 118 778 236 357 142 656 294 1048 533 187 113 292 177
353 212 18 11 118 69 221 129 404 237 554 304 1013 456 331 109 421 143 545
207 161 83 258 171 303 276 12 28 12 29 -18 22 l-30 -7 17 36 c9 20 13 39 10
43 -4 4 -35 -3 -70 -16 -53 -19 -157 -52 -442 -141 -33 -10 -109 -32 -170 -50
-873 -252 -908 -266 -1588 -651 -120 -68 -342 -176 -415 -203 -169 -61 -338
-90 -368 -65 -19 15 -72 128 -108 229 -19 52 -22 71 -13 77 7 5 50 27 97 48
198 90 375 175 915 440 143 70 314 153 380 185 66 32 174 83 240 115 66 32
192 89 280 127 88 38 169 73 180 77 11 5 93 41 181 80 89 39 233 104 320 145
153 71 232 108 387 180 66 31 219 100 340 155 26 12 47 23 47 25 0 3 -722
-221 -994 -309 -77 -25 -141 -43 -143 -41 -2 2 17 12 44 21 26 10 62 23 78 30
17 7 104 40 195 73 91 34 226 84 300 113 306 116 448 169 519 192 53 16 69 18
96 8 70 -25 133 -7 236 69 l44 32 -32 -4 c-18 -3 -33 -1 -33 3 0 4 21 26 46
48 39 34 49 39 58 26 10 -12 17 -12 56 5 25 11 122 48 215 84 138 52 179 63
215 61 153 -13 193 -16 265 -22 44 -4 94 -7 112 -7 18 0 30 -2 27 -5 -5 -5 -8
-6 -169 -15 -123 -7 -159 -11 -225 -27 -89 -22 -223 -66 -315 -104 -150 -63
-154 -65 -58 -39 189 50 373 78 514 77 118 0 119 -4 52 -103 -115 -170 -317
-346 -643 -561 -80 -53 -211 -139 -292 -193 -130 -85 -171 -116 -154 -116 22
0 183 46 281 80 468 163 895 381 1142 582 49 40 168 161 200 203 67 90 104
205 96 304 -4 46 -59 166 -90 193 -10 9 -45 29 -78 44 -53 25 -72 28 -170 28
-183 1 -294 -20 -485 -91 -183 -68 -325 -151 -417 -243 l-51 -52 5 60 6 61
-74 -21 c-41 -11 -96 -29 -124 -40 -57 -22 -55 -20 35 47 181 135 257 261 467
780 47 116 96 235 110 265 14 30 34 73 44 95 18 41 74 142 112 205 11 19 102
159 202 310 349 528 474 768 520 997 27 133 23 262 -10 348 -17 42 -95 143
-145 185 -223 191 -588 347 -1362 580 -73 22 -146 44 -163 49 -16 6 -77 23
-135 40 -387 109 -837 261 -1429 483 -377 141 -473 181 -721 304 -336 166
-446 199 -562 169z m139 -631 c-2 -3 -13 -6 -23 -8 -79 -16 -157 -38 -199 -56
-82 -36 -97 -41 -90 -31 14 23 155 82 215 90 59 8 102 10 97 5z m-975 -853
c-9 -16 -38 -64 -64 -108 -104 -175 -209 -407 -274 -602 -20 -61 -37 -111 -39
-111 -5 0 4 167 10 214 8 55 120 263 238 441 87 132 180 251 129 166z m4749
-839 c-11 -21 -33 -67 -49 -103 -17 -35 -64 -135 -106 -223 -42 -87 -76 -160
-76 -162 0 -2 -15 -36 -34 -76 -19 -40 -70 -154 -114 -253 -81 -181 -114 -254
-192 -420 -23 -49 -55 -119 -72 -154 -48 -105 -159 -325 -169 -336 -5 -5 -3
11 5 35 9 25 34 104 57 175 89 277 234 600 430 957 34 62 75 138 92 168 93
171 240 430 243 430 3 0 -4 -17 -15 -38z m-5156 -257 c7 -101 23 -157 65 -214
11 -16 20 -32 20 -36 0 -10 -148 95 -153 108 -2 7 6 53 19 102 13 50 27 103
30 118 4 15 8 26 9 25 2 -2 6 -48 10 -103z m786 -582 c13 -15 12 -15 -8 -4
-24 12 -29 21 -14 21 5 0 15 -7 22 -17z m-373 -1508 c43 -19 134 -76 129 -81
-2 -3 -35 9 -73 25 -38 16 -85 32 -104 36 -66 12 -75 13 -82 14 -5 1 -8 6 -8
11 0 16 96 12 138 -5z m-2520 -631 c-5 -4 -236 -68 -288 -79 -8 -2 -50 -13
-92 -24 -88 -24 -126 -27 -58 -5 25 8 61 19 80 26 46 15 331 87 349 87 8 1 12
-2 9 -5z m3176 -284 c-2 -73 -4 -81 -13 -76 -9 6 -12 142 -3 171 5 16 7 13 12
-15 3 -19 5 -55 4 -80z m-3984 -36 c-35 -104 13 -200 167 -336 28 -26 60 -51
70 -56 10 -6 15 -14 11 -17 -11 -11 -200 119 -247 170 -47 51 -71 99 -71 143
0 27 68 147 78 137 2 -2 -1 -20 -8 -41z m90 -475 c104 -22 327 -150 460 -265
40 -34 389 -327 421 -352 21 -17 29 -20 29 -9 0 21 -36 130 -55 167 -27 52
-11 44 18 -8 14 -26 31 -70 37 -97 14 -61 19 -218 9 -265 -6 -26 -7 -20 -5 28
2 34 0 62 -3 62 -3 0 -43 -58 -88 -128 -94 -147 -121 -181 -218 -278 -90 -90
-145 -118 -223 -111 -137 12 -347 78 -489 154 -171 91 -360 229 -460 337 -83
88 -92 120 -58 211 55 149 185 374 256 444 71 70 163 115 254 124 35 3 41 2
115 -14z m3333 -675 c-19 -47 -37 -97 -39 -112 -9 -45 -15 -39 -13 13 2 78 16
120 51 154 17 17 33 31 33 31 1 0 -13 -38 -32 -86z m-128 -265 c36 -17 47 -28
55 -57 5 -20 8 -38 6 -40 -2 -1 -33 1 -68 6 -36 4 -82 7 -104 6 -67 -3 -197
-15 -231 -21 -91 -15 31 53 182 103 87 29 104 29 160 3z m-605 -114 c-31 -19
-90 -45 -99 -45 -9 1 103 59 114 59 6 0 -1 -6 -15 -14z m603 -226 c-55 -95
-219 -235 -373 -318 -93 -50 -235 -108 -286 -116 -30 -5 -19 3 46 31 113 50
281 137 350 182 55 36 141 112 209 186 73 79 83 85 54 35z m-656 -68 c28 -40
43 -73 43 -93 0 -34 -39 -120 -51 -112 -12 7 -66 155 -72 194 -5 42 8 83 25
78 7 -3 32 -33 55 -67z m-382 9 c26 -24 80 -120 68 -120 -4 0 -21 7 -38 16
-75 41 -163 82 -198 94 -21 6 -36 15 -32 18 3 3 31 11 63 17 64 13 104 6 137
-25z m300 -290 c3 -6 -1 -13 -10 -16 -19 -8 -30 0 -20 15 8 14 22 14 30 1z"/>
</g>
</svg>
