<?xml version="1.0" standalone="no"?>
<!DOCTYPE svg PUBLIC "-//W3C//DTD SVG 20010904//EN"
 "http://www.w3.org/TR/2001/REC-SVG-20010904/DTD/svg10.dtd">
<svg version="1.0" xmlns="http://www.w3.org/2000/svg"
 width="1280.000000pt" height="1244.000000pt" viewBox="0 0 1280.000000 1244.000000"
 preserveAspectRatio="xMidYMid meet">
<g transform="translate(0.000000,1244.000000) scale(0.100000,-0.100000)"
fill="#737070" stroke="none">
<path d="M5531 12417 c-16 -16 -14 -59 5 -85 15 -22 15 -24 -5 -29 l-21 -5 22
-31 c69 -97 259 -270 401 -365 57 -39 98 -57 197 -85 205 -60 391 -102 747
-172 752 -146 863 -169 991 -201 258 -65 469 -144 969 -365 392 -173 502 -216
813 -319 579 -191 924 -358 1462 -706 182 -118 240 -144 489 -219 203 -60 287
-91 356 -130 25 -14 48 -23 50 -21 8 7 -112 140 -177 196 -70 61 -66 79 7 29
79 -54 177 -163 217 -239 l37 -70 -140 -373 c-77 -204 -221 -588 -321 -852
-100 -264 -240 -637 -310 -830 -70 -192 -139 -370 -153 -395 -14 -25 -98 -202
-187 -395 -89 -192 -176 -377 -192 -410 -17 -33 -25 -55 -20 -50 37 36 331
602 468 900 66 144 93 190 179 305 309 413 488 727 702 1235 97 229 174 438
172 464 -5 62 1 101 15 101 26 0 28 -18 11 -128 -34 -226 -99 -433 -280 -897
-126 -323 -173 -462 -245 -725 l-58 -215 -346 -669 -345 -669 6 -83 c5 -76 4
-86 -20 -126 -34 -57 -74 -104 -81 -97 -3 3 1 37 9 75 8 38 26 173 40 299 31
276 48 390 80 552 14 67 25 126 25 130 0 4 -25 -35 -55 -86 -74 -125 -239
-368 -280 -411 -19 -19 -52 -73 -74 -120 -23 -47 -50 -96 -62 -110 l-21 -25 5
28 c2 15 3 27 1 27 -1 0 -25 -39 -52 -87 -245 -434 -487 -943 -630 -1328 -92
-245 -93 -256 -13 -105 28 52 51 91 51 87 0 -14 -170 -371 -189 -398 -11 -15
-61 -114 -111 -220 -150 -317 -170 -357 -200 -386 -28 -28 -136 -187 -203
-299 -92 -153 -197 -413 -197 -486 0 -18 2 -19 16 -7 15 12 16 11 9 -11 -4
-14 -27 -55 -51 -91 -48 -72 -124 -231 -124 -258 0 -9 6 -23 13 -30 10 -10 6
-17 -17 -37 l-28 -25 -22 24 c-11 13 -26 33 -32 43 -11 18 -12 18 -40 -1 -48
-31 -242 -225 -311 -310 -138 -172 -278 -399 -448 -727 -53 -103 -100 -190
-104 -192 -4 -3 -27 9 -52 25 -180 122 -618 288 -1079 409 -172 45 -536 167
-605 203 -17 8 -204 90 -415 182 -777 337 -1986 882 -1977 891 5 5 1218 -528
1940 -852 213 -96 392 -174 398 -174 17 0 -12 34 -76 89 -87 74 -202 130 -440
211 -115 40 -242 87 -281 105 -130 59 -247 152 -311 247 -57 84 -676 427
-1183 656 -354 160 -604 261 -1390 564 -969 373 -1470 584 -1616 678 -186 122
-225 262 -102 376 77 72 126 80 253 44 l69 -20 33 32 c18 18 33 40 33 49 0 10
-20 32 -44 48 -55 38 -70 75 -63 149 7 88 65 191 181 326 69 80 221 212 275
238 l44 21 79 -23 c79 -23 80 -23 105 -3 37 27 47 46 39 77 -7 30 -99 102
-189 147 -31 16 -57 35 -57 43 0 7 35 60 78 117 176 234 327 466 463 709 80
144 132 197 219 228 36 12 74 22 86 22 11 0 57 -18 103 -40 130 -63 168 -50
159 51 -6 60 -34 98 -134 180 -123 102 -149 169 -110 286 28 85 189 313 221
313 6 0 20 -10 31 -22 38 -42 106 -78 149 -78 124 0 125 189 2 249 -24 12 -51
21 -60 21 -10 0 -20 7 -24 16 -8 21 100 350 144 437 85 170 184 220 354 179
142 -35 145 -35 192 -14 50 22 87 73 87 119 0 41 -36 72 -157 132 -56 28 -109
61 -118 74 -65 100 21 372 137 433 45 24 76 16 220 -51 76 -36 146 -65 154
-65 41 0 -28 128 -94 175 -23 16 -61 44 -84 60 -58 42 -65 69 -39 155 15 49
43 102 94 175 114 165 158 246 155 280 l-3 30 -65 -1 c-81 0 -140 -17 -179
-50 -17 -14 -35 -23 -41 -19 -5 3 -10 27 -10 52 0 66 34 118 122 183 40 30 97
74 126 98 28 24 52 41 52 37 0 -3 -9 -24 -21 -46 -11 -23 -19 -42 -17 -44 2
-1 30 -10 63 -20 32 -9 121 -49 197 -88 190 -97 259 -101 334 -20 40 43 33 94
-18 150 -47 50 -125 106 -205 147 -29 14 -53 30 -53 35 0 5 28 47 63 94 34 47
100 138 147 203 47 65 114 149 150 186 l65 68 93 0 c108 0 112 5 62 83 -16 26
-30 50 -30 53 0 3 37 44 83 93 46 48 112 127 148 176 90 124 135 172 175 185
46 16 176 3 234 -22 78 -33 110 -6 110 95 0 64 -20 99 -89 157 -28 23 -60 63
-72 88 -20 40 -21 51 -12 96 12 60 5 71 -65 93 -67 20 -268 28 -397 14 -318
-33 -527 -108 -577 -205 -28 -54 -27 -158 2 -286 40 -176 27 -262 -52 -336
-43 -41 -93 -65 -203 -99 -49 -15 -106 -35 -126 -46 -55 -28 -123 -110 -149
-179 -21 -57 -22 -70 -16 -210 6 -124 5 -153 -8 -178 -22 -43 -67 -77 -133
-102 -150 -56 -232 -169 -263 -363 -15 -90 -8 -235 14 -315 l14 -53 -66 -101
-67 -101 -105 -2 c-174 -3 -269 -55 -332 -183 -33 -66 -33 -68 -33 -212 0
-169 -6 -184 -97 -240 -145 -90 -156 -99 -206 -173 -47 -71 -67 -123 -107
-272 -15 -56 -15 -66 1 -148 30 -149 14 -165 -200 -202 -158 -27 -224 -49
-269 -93 -93 -88 -101 -270 -22 -473 28 -70 72 -149 84 -149 13 0 70 86 104
157 29 61 32 79 35 181 l4 112 67 35 c36 19 94 60 128 90 62 55 73 62 73 46 0
-8 -193 -346 -363 -636 -78 -133 -373 -585 -382 -585 -9 0 47 105 138 261 101
174 110 189 104 195 -8 8 -213 -64 -288 -101 -82 -41 -183 -110 -215 -146 -11
-13 -26 -42 -33 -64 -18 -60 -26 -241 -12 -306 12 -55 66 -159 86 -166 6 -1
30 29 54 68 23 39 45 68 48 66 2 -3 -14 -47 -36 -98 -22 -53 -49 -142 -61
-202 -45 -225 -62 -253 -203 -323 -49 -25 -92 -43 -95 -39 -3 3 5 26 18 51 29
53 25 59 -57 69 -65 8 -151 -9 -218 -42 -96 -49 -193 -175 -225 -292 -17 -63
-15 -192 4 -249 19 -55 75 -134 112 -159 25 -16 27 -16 44 8 20 25 22 24 34
-33 3 -14 9 -33 12 -41 4 -11 -7 -22 -35 -36 -48 -25 -61 -26 -61 -6 0 12 -16
15 -82 15 -189 0 -337 -71 -398 -189 -28 -56 -60 -183 -60 -238 0 -100 68
-257 116 -269 14 -4 56 -3 93 0 l69 7 66 -73 c79 -87 196 -246 196 -269 0 -9
-11 -21 -25 -27 -83 -38 -77 -201 17 -422 56 -133 109 -220 179 -295 109 -116
211 -168 479 -245 742 -212 1394 -517 2488 -1163 794 -470 2234 -1181 3162
-1562 616 -252 1010 -370 1279 -382 l124 -6 61 -42 c68 -48 165 -99 173 -91 3
2 -14 36 -37 75 -23 38 -43 77 -44 86 -1 8 -8 21 -14 27 -18 18 -14 43 9 64
12 10 55 60 95 111 117 146 120 136 12 -49 -37 -65 -68 -122 -68 -127 0 -29
225 -181 241 -163 4 4 35 86 69 182 121 341 320 827 503 1230 164 361 376 796
829 1705 454 911 647 1309 851 1756 51 113 141 288 199 390 240 420 411 749
545 1048 78 174 161 341 334 671 321 615 504 1077 554 1400 5 32 28 76 77 149
38 57 81 126 95 155 31 62 73 175 73 198 0 25 -102 157 -266 344 -82 93 -202
233 -267 311 -188 227 -265 288 -566 451 -171 92 -313 177 -456 272 -526 351
-1257 733 -1909 997 -638 259 -1097 393 -1929 562 -391 80 -379 75 263 -111
741 -214 1009 -300 1335 -430 166 -66 460 -206 452 -214 -3 -3 -70 20 -149 51
-180 72 -220 86 -738 255 -850 277 -1430 454 -2055 625 -132 36 -245 72 -250
79 -6 7 -80 37 -165 66 -154 53 -336 126 -481 193 -57 26 -80 32 -88 24z
m-1142 -508 c162 -37 198 -61 187 -124 -5 -26 -27 -57 -78 -111 -73 -77 -92
-86 -114 -56 -17 22 -22 17 -107 -119 -37 -59 -74 -112 -82 -119 -17 -14 -14
-7 68 162 43 89 85 202 101 269 5 23 -1 32 -49 68 -54 41 -71 67 -37 57 9 -3
59 -15 111 -27z m132 -446 c-336 -407 -438 -539 -603 -778 -170 -246 -170
-247 -175 -241 -17 16 209 371 355 557 150 193 489 575 500 564 2 -2 -33 -48
-77 -102z m-494 -425 c-4 -31 -23 -86 -46 -134 -39 -78 -112 -174 -133 -174
-6 0 -8 15 -6 35 2 19 2 35 -2 35 -3 0 -114 -164 -248 -363 -249 -370 -292
-430 -292 -411 0 11 216 374 345 578 139 221 342 486 372 486 13 0 15 -9 10
-52z m-987 -1636 c0 -46 -150 -312 -177 -312 -13 0 -30 51 -39 115 -4 31 1 51
23 90 24 43 38 55 103 87 86 43 90 44 90 20z m9210 -73 c0 -5 -7 -9 -15 -9
-15 0 -20 12 -9 23 8 8 24 -1 24 -14z m-9644 -644 c14 -36 -127 -225 -169
-225 -20 0 -19 3 65 153 41 73 53 87 74 87 14 0 27 -7 30 -15z m-13 -398
c-154 -307 -275 -523 -532 -950 -246 -409 -344 -567 -349 -562 -5 4 30 67 495
890 165 292 328 582 363 645 83 152 143 250 149 244 3 -3 -54 -123 -126 -267z
m-1264 -2179 c-37 -75 -739 -1276 -759 -1300 -64 -76 38 155 176 400 164 290
578 942 599 942 3 0 -4 -19 -16 -42z m-352 -234 c22 -22 24 -31 19 -66 -14
-84 -142 -288 -181 -288 -7 0 -25 23 -39 52 -37 75 -35 134 8 225 33 68 37 73
83 87 67 21 80 19 110 -10z m9539 -121 c-9 -26 -23 -59 -31 -73 l-14 -25 -1
25 c0 28 47 136 56 127 3 -3 -1 -27 -10 -54z m-9986 -521 c0 -27 -63 -121 -68
-100 -3 18 21 72 46 101 19 21 22 21 22 -1z m-90 -174 c0 -18 -35 -129 -66
-210 -15 -40 -32 -68 -40 -68 -18 0 -18 21 1 90 26 99 105 240 105 188z m9736
-184 c-35 -84 -208 -415 -213 -410 -5 5 176 389 209 444 30 49 32 32 4 -34z
m83 -301 c-166 -288 -208 -357 -215 -350 -20 20 262 522 332 591 42 42 16 -10
-117 -241z m339 108 c4 -58 -29 -162 -76 -238 -47 -76 -144 -202 -156 -203 -4
0 -6 15 -2 33 3 17 9 61 12 97 l6 65 -61 -65 c-33 -36 -60 -60 -61 -54 -1 45
295 421 324 411 6 -2 12 -23 14 -46z m-477 -982 c-17 -51 -29 -95 -27 -97 2
-2 27 38 56 87 51 89 70 114 70 90 0 -31 -480 -1029 -955 -1984 -290 -585
-364 -723 -365 -689 0 19 328 795 406 959 33 71 49 119 54 165 7 57 21 90 115
265 143 266 296 579 390 800 67 158 174 365 254 490 37 58 38 25 2 -86z
m-8868 -255 c78 -31 349 -125 602 -209 287 -95 528 -181 640 -229 214 -92 595
-277 848 -412 395 -211 1019 -561 1058 -594 l24 -20 -48 20 c-77 32 -432 218
-827 433 -428 233 -900 469 -1125 562 -88 37 -317 119 -510 182 -192 64 -411
139 -485 168 -123 48 -346 153 -327 154 5 1 72 -24 150 -55z m2517 -509 c14
-8 21 -14 15 -14 -5 0 -21 6 -35 14 -14 8 -20 14 -15 14 6 0 21 -6 35 -14z
m5133 -946 c-47 -80 -177 -258 -302 -414 -92 -115 -257 -367 -302 -460 -39
-81 -69 -179 -69 -225 0 -14 8 -55 17 -92 9 -37 14 -70 10 -74 -13 -14 -35 18
-47 68 -34 138 33 338 193 578 106 159 542 732 545 716 2 -9 -18 -52 -45 -97z
m-3551 -220 c50 -20 130 -46 263 -85 88 -26 36 -30 -63 -5 -93 24 -230 75
-258 96 -27 21 -3 18 58 -6z m3117 -41 c-7 -13 -34 -57 -60 -99 -27 -42 -49
-81 -49 -87 0 -6 -32 -67 -71 -134 -130 -226 -191 -368 -257 -598 -10 -35 -40
-38 -48 -5 -11 44 -67 78 -137 83 -54 4 -59 6 -42 18 39 29 117 12 159 -35 30
-34 39 -26 33 28 -7 58 -26 100 -74 159 -20 24 -33 46 -29 49 3 3 29 -4 57
-16 28 -11 57 -21 64 -21 14 0 238 340 230 348 -3 3 -17 -7 -31 -22 -41 -40
-42 -22 -1 36 62 90 246 318 257 318 7 0 7 -8 -1 -22z m-1708 -430 c90 -58
211 -130 269 -159 86 -44 100 -54 79 -57 -42 -5 -157 26 -218 58 -51 27 -194
141 -296 235 -68 62 -11 36 166 -77z m836 -424 c60 -18 60 -30 -3 -39 -43 -7
-74 10 -74 41 0 18 9 18 77 -2z m-457 -155 c122 -40 326 -126 319 -134 -12
-11 -284 86 -375 134 -51 26 -24 26 56 0z"/>
<path d="M9718 2842 c-179 -340 -204 -391 -190 -377 35 33 362 659 350 670 -2
3 -74 -129 -160 -293z"/>
<path d="M6506 10376 c-61 -23 -98 -67 -207 -250 -109 -181 -198 -324 -427
-681 -96 -151 -190 -317 -297 -525 -174 -339 -274 -499 -364 -583 -34 -31 -61
-64 -61 -74 1 -65 87 -170 203 -247 134 -88 236 -134 612 -277 371 -141 742
-354 1062 -610 174 -140 320 -217 500 -264 32 -9 166 -33 298 -55 141 -23 300
-57 385 -81 120 -34 167 -42 270 -48 115 -6 123 -8 97 -20 l-27 -14 36 -33
c44 -41 38 -55 -18 -42 -114 26 -386 -42 -745 -186 -491 -197 -1274 -598
-1786 -913 -48 -30 -92 -53 -97 -51 -6 2 6 26 26 53 49 68 76 123 72 146 -3
17 -13 12 -78 -37 -229 -171 -544 -314 -905 -413 -257 -71 -828 -192 -841
-179 -3 4 7 40 24 81 87 209 52 363 -108 481 -33 25 -115 72 -183 107 -67 34
-171 90 -232 124 -60 34 -140 78 -176 98 -132 73 -208 163 -194 233 6 35 58
104 69 93 4 -4 1 -26 -5 -51 -11 -40 -10 -50 10 -91 21 -43 129 -163 138 -153
3 2 -2 17 -10 33 -66 129 -3 236 195 332 184 89 442 163 928 267 145 31 334
76 420 101 251 74 326 93 447 113 207 36 380 22 504 -41 78 -39 109 -68 176
-162 106 -151 127 -245 77 -345 -52 -105 -173 -170 -475 -258 -252 -73 -493
-170 -1278 -515 -160 -70 -163 -77 -52 -100 168 -35 521 37 958 195 466 169
624 250 781 401 44 41 83 75 87 75 4 0 -5 -21 -20 -46 -15 -25 -24 -48 -21
-51 9 -9 113 34 159 66 90 62 129 162 107 275 -53 279 -447 671 -755 751 -318
83 -797 8 -1456 -230 -85 -30 -248 -83 -364 -116 -379 -110 -536 -174 -613
-248 -21 -21 -76 -102 -122 -182 -124 -214 -151 -250 -312 -416 -187 -193
-220 -255 -198 -374 31 -160 243 -430 446 -565 257 -172 558 -219 986 -153 73
11 242 40 375 65 133 24 250 44 259 44 10 0 -6 -22 -44 -58 -53 -51 -61 -64
-72 -116 -21 -103 6 -224 66 -294 131 -154 449 -146 939 22 314 107 614 251
955 459 118 71 277 168 353 214 347 211 518 287 957 428 273 87 421 167 497
268 37 47 40 57 18 57 -18 0 -19 14 -5 41 6 10 9 19 8 19 -2 0 -64 -21 -138
-46 -74 -25 -274 -85 -445 -134 -345 -99 -496 -149 -636 -210 -102 -45 -113
-51 -388 -208 -280 -160 -430 -224 -588 -252 -103 -19 -92 -29 -169 155 -26
62 -30 82 -21 91 7 6 77 40 157 75 80 35 339 160 575 277 480 239 555 274 870
407 189 80 720 327 735 342 9 8 -48 -8 -374 -109 -176 -54 -324 -98 -330 -98
-28 2 93 52 384 160 173 65 369 139 435 165 105 41 124 45 151 36 17 -6 44
-11 60 -11 37 0 118 50 104 64 -6 6 8 28 39 61 36 38 50 62 56 94 4 23 5 45 2
48 -3 3 -42 -7 -86 -22 -45 -15 -86 -25 -93 -23 -6 2 19 25 55 51 135 96 208
218 353 582 118 298 152 364 329 625 166 246 277 428 330 543 101 219 125 394
69 514 -44 93 -212 216 -425 309 -219 97 -419 164 -924 309 -165 48 -316 92
-335 97 -55 16 -592 211 -840 304 -124 47 -304 125 -400 173 -96 49 -204 100
-240 114 -83 33 -172 42 -224 23z m154 -456 c8 -5 13 -10 10 -10 -62 -6 -171
-34 -228 -58 -79 -34 -95 -27 -33 14 76 49 212 79 251 54z m-762 -652 c-99
-171 -124 -219 -162 -305 -24 -54 -61 -150 -81 -213 -21 -63 -42 -119 -47
-125 -6 -6 -7 37 -3 105 l6 115 55 105 c78 147 238 379 252 365 2 -2 -7 -23
-20 -47z m3499 -765 c-53 -110 -150 -323 -217 -474 -138 -312 -320 -689 -332
-689 -15 0 -8 33 43 194 68 214 201 494 437 916 92 164 153 263 159 256 3 -2
-38 -94 -90 -203z m-3764 -186 c16 -27 26 -51 23 -54 -8 -8 -116 59 -126 78
-8 14 36 180 57 211 5 8 10 -30 13 -87 4 -87 9 -106 33 -148z m547 -297 c19
-11 31 -19 25 -19 -5 0 -26 8 -45 19 -19 11 -30 19 -25 19 6 0 26 -8 45 -19z
m1840 -820 c8 -5 11 -10 5 -10 -5 0 -17 5 -25 10 -8 5 -10 10 -5 10 6 0 17 -5
25 -10z m-2080 -323 c30 -17 56 -40 58 -49 3 -15 -3 -15 -50 7 -30 14 -78 28
-108 32 -54 8 -77 27 -43 36 50 13 91 6 143 -26z m-1879 -453 c-36 -16 -331
-98 -393 -109 -21 -4 -38 -4 -38 -1 0 16 181 73 340 106 106 23 137 24 91 4z
m2327 -141 c6 -16 13 -38 17 -50 7 -25 -8 -90 -27 -116 -11 -14 -13 0 -13 88
0 58 3 105 6 105 4 0 11 -12 17 -27z m-2897 -459 c121 -36 202 -90 461 -306
97 -81 179 -148 182 -148 12 0 5 27 -24 89 -17 35 -29 66 -26 68 5 6 49 -54
72 -97 25 -49 29 -177 8 -263 -20 -81 -38 -101 -29 -31 3 27 8 59 11 72 2 12
2 22 -1 22 -2 0 -38 -51 -78 -112 -80 -123 -159 -205 -230 -239 -45 -22 -47
-22 -129 -6 -182 36 -355 113 -509 229 -165 123 -219 185 -219 251 0 39 88
226 149 316 100 146 219 197 362 155z m2505 -472 c-8 -15 -24 -58 -36 -95 -12
-37 -26 -65 -31 -61 -13 7 -11 91 2 117 17 33 51 67 66 67 11 0 11 -5 -1 -28z
m-83 -253 c9 -11 17 -31 17 -43 0 -22 -3 -22 -107 -22 -60 1 -137 -1 -172 -4
-40 -3 -66 -1 -68 5 -5 15 121 74 188 89 65 15 117 6 142 -25z m-473 -64 c0
-9 -103 -55 -120 -54 -8 0 10 13 40 29 53 28 80 36 80 25z m411 -220 c-80
-106 -214 -199 -381 -262 -80 -30 -156 -44 -134 -24 5 4 46 24 91 43 163 70
270 137 367 231 50 48 92 83 94 77 2 -6 -15 -35 -37 -65z m-478 21 c15 -18 34
-49 43 -69 16 -33 16 -37 -2 -73 -29 -60 -47 -55 -78 21 -28 70 -32 105 -16
136 15 27 24 24 53 -15z m-292 -1 c32 -17 69 -69 69 -97 0 -25 -11 -23 -82 15
-35 18 -78 38 -95 45 -18 6 -33 16 -33 21 0 11 51 29 88 30 13 1 36 -6 53 -14z
m239 -249 c-6 -8 -18 -12 -26 -9 -23 9 -16 23 12 23 22 0 24 -2 14 -14z"/>
<path d="M9535 6979 c-164 -25 -342 -91 -462 -171 -93 -63 -173 -158 -132
-158 6 0 77 25 157 56 l146 57 101 -7 c110 -7 278 -27 272 -32 -2 -2 -66 -8
-143 -14 -132 -10 -263 -37 -329 -67 l-30 -14 30 5 c188 29 320 30 331 1 8
-20 -56 -113 -139 -201 -86 -92 -235 -204 -469 -353 -164 -105 -214 -141 -192
-141 17 0 140 39 234 73 498 185 863 422 961 623 61 128 18 284 -92 328 -51
20 -165 28 -244 15z"/>
</g>
</svg>
