<?xml version="1.0" encoding="UTF-8"?>
<!DOCTYPE svg PUBLIC "-//W3C//DTD SVG 1.1//EN" "http://www.w3.org/Graphics/SVG/1.1/DTD/svg11.dtd">
<svg xmlns="http://www.w3.org/2000/svg" version="1.1" width="40px" height="40px" style="shape-rendering:geometricPrecision; text-rendering:geometricPrecision; image-rendering:optimizeQuality; fill-rule:evenodd; clip-rule:evenodd" xmlns:xlink="http://www.w3.org/1999/xlink">
<g><path style="opacity:0.918" fill="#4767da" d="M 34.5,4.5 C 43.9913,5.33003 53.658,5.83003 63.5,6C 64.3279,6.91471 65.3279,7.58138 66.5,8C 63.3869,12.3499 61.7202,17.0166 61.5,22C 56.3165,22.1739 51.3165,22.6739 46.5,23.5C 43.9407,23.1984 41.6074,23.5318 39.5,24.5C 39.5858,25.4959 39.2524,26.3292 38.5,27C 36.1902,27.4966 33.8568,27.6633 31.5,27.5C 31.5,28.8333 31.5,30.1667 31.5,31.5C 30.1667,31.5 28.8333,31.5 27.5,31.5C 27.6633,33.8568 27.4966,36.1902 27,38.5C 26.3292,39.2524 25.4959,39.5858 24.5,39.5C 23.2791,61.9907 22.6125,84.6574 22.5,107.5C 21.325,107.281 20.325,107.614 19.5,108.5C 15.2226,115.936 11.3893,123.603 8,131.5C 7.78107,130.062 7.28107,128.729 6.5,127.5C 5.83333,95.3359 5.16667,63.3359 4.5,31.5C 4.33432,27.1539 4.50098,22.8206 5,18.5C 5.70956,17.0267 6.87623,16.3601 8.5,16.5C 8.5,15.1667 8.5,13.8333 8.5,12.5C 9.83333,12.5 11.1667,12.5 12.5,12.5C 12.1667,9.5 13.5,8.16667 16.5,8.5C 16.5,7.5 16.5,6.5 16.5,5.5C 22.4549,4.63651 28.4549,4.30318 34.5,4.5 Z"/></g>
<g><path style="opacity:0.867" fill="#8168c4" d="M 125.5,4.5 C 137.871,4.22664 150.204,4.55997 162.5,5.5C 162.5,6.5 162.5,7.5 162.5,8.5C 163.791,8.26269 164.791,8.59603 165.5,9.5C 163.656,10.1603 161.99,11.1603 160.5,12.5C 158.912,11.9904 157.745,10.9904 157,9.5C 157.096,13.5883 156.096,17.5883 154,21.5C 152.844,20.0072 152.01,20.1739 151.5,22C 152.799,23.3264 154.132,24.6598 155.5,26C 153.262,28.1043 152.262,30.4376 152.5,33C 153.738,32.9227 154.738,33.0894 155.5,33.5C 155.043,34.2975 154.376,34.6309 153.5,34.5C 151.656,32.7211 150.99,30.3878 151.5,27.5C 148.612,28.0102 146.279,27.3435 144.5,25.5C 134.219,23.5238 123.552,22.8572 112.5,23.5C 114.06,21.8706 113.727,20.704 111.5,20C 113.475,15.7829 115.808,11.7829 118.5,8C 118.167,7.66667 117.833,7.33333 117.5,7C 120.251,6.05722 122.917,5.22389 125.5,4.5 Z"/></g>
<g><path style="opacity:0.865" fill="#5d68d1" d="M 34.5,4.5 C 64.8333,4.5 95.1667,4.5 125.5,4.5C 122.917,5.22389 120.251,6.05722 117.5,7C 117.833,7.33333 118.167,7.66667 118.5,8C 115.808,11.7829 113.475,15.7829 111.5,20C 113.727,20.704 114.06,21.8706 112.5,23.5C 90.5,23.5 68.5,23.5 46.5,23.5C 51.3165,22.6739 56.3165,22.1739 61.5,22C 61.7202,17.0166 63.3869,12.3499 66.5,8C 65.3279,7.58138 64.3279,6.91471 63.5,6C 53.658,5.83003 43.9913,5.33003 34.5,4.5 Z"/></g>
<g><path style="opacity:0.859" fill="#9168be" d="M 165.5,9.5 C 166.404,10.209 166.737,11.209 166.5,12.5C 169.5,12.1667 170.833,13.5 170.5,16.5C 171.5,16.5 172.5,16.5 173.5,16.5C 174.599,27.4664 174.765,38.4664 174,49.5C 172.989,50.3366 171.822,50.67 170.5,50.5C 169.833,55.1667 167.167,57.8333 162.5,58.5C 162.5,59.5 162.5,60.5 162.5,61.5C 161.5,61.5 160.5,61.5 159.5,61.5C 159.833,64.5 158.5,65.8333 155.5,65.5C 155.67,66.8221 155.337,67.9887 154.5,69C 152.409,70.7264 150.076,71.8931 147.5,72.5C 147.67,73.8221 147.337,74.9887 146.5,76C 144.527,76.4955 142.527,76.6621 140.5,76.5C 140.5,77.8333 140.5,79.1667 140.5,80.5C 139.167,80.5 137.833,80.5 136.5,80.5C 136.833,83.5 135.5,84.8333 132.5,84.5C 132.5,85.5 132.5,86.5 132.5,87.5C 131.209,87.2627 130.209,87.596 129.5,88.5C 127.436,88.313 125.436,87.813 123.5,87C 124.249,85.2663 124.749,83.433 125,81.5C 125.75,80.8742 126.584,80.3742 127.5,80C 127.167,79.6667 126.833,79.3333 126.5,79C 128.773,75.5222 130.273,71.6889 131,67.5C 131.75,66.8742 132.584,66.3742 133.5,66C 133.167,65.6667 132.833,65.3333 132.5,65C 133.833,64.6667 135.167,64.3333 136.5,64C 135.692,63.6924 135.025,63.1924 134.5,62.5C 136.578,60.5717 137.245,58.405 136.5,56C 137.624,55.7508 138.624,55.2508 139.5,54.5C 138.826,52.8045 138.159,51.1379 137.5,49.5C 139.048,49.1788 139.715,48.1788 139.5,46.5C 140.833,46.5 142.167,46.5 143.5,46.5C 143.167,43.5 144.5,42.1667 147.5,42.5C 147.167,39.5 148.5,38.1667 151.5,38.5C 151.527,36.8007 152.194,35.4674 153.5,34.5C 154.376,34.6309 155.043,34.2975 155.5,33.5C 154.738,33.0894 153.738,32.9227 152.5,33C 152.262,30.4376 153.262,28.1043 155.5,26C 154.132,24.6598 152.799,23.3264 151.5,22C 152.01,20.1739 152.844,20.0072 154,21.5C 156.096,17.5883 157.096,13.5883 157,9.5C 157.745,10.9904 158.912,11.9904 160.5,12.5C 161.99,11.1603 163.656,10.1603 165.5,9.5 Z"/></g>
<g><path style="opacity:0.027" fill="#616bb3" d="M 39.5,24.5 C 41.6074,23.5318 43.9407,23.1984 46.5,23.5C 68.5,23.5 90.5,23.5 112.5,23.5C 123.552,22.8572 134.219,23.5238 144.5,25.5C 109.573,24.5071 74.573,24.1738 39.5,24.5 Z"/></g>
<g><path style="opacity:0.841" fill="#6667cf" d="M 83.5,81.5 C 81.6891,81.572 80.3557,82.4053 79.5,84C 79.8598,85.6515 80.1932,87.3182 80.5,89C 78.962,92.5902 77.1287,96.4235 75,100.5C 72.606,101.951 70.4393,101.618 68.5,99.5C 67.537,99.9698 67.537,100.637 68.5,101.5C 66.0178,100.337 64.6845,98.3373 64.5,95.5C 63.5,95.5 62.5,95.5 61.5,95.5C 61.5,94.1667 61.5,92.8333 61.5,91.5C 60.1667,91.5 58.8333,91.5 57.5,91.5C 57.5,90.1667 57.5,88.8333 57.5,87.5C 54.6444,86.586 52.1444,84.9193 50,82.5C 49.1701,76.8041 49.3368,71.1375 50.5,65.5C 56.1138,64.3791 61.7805,64.2124 67.5,65C 69.9193,67.1444 71.586,69.6444 72.5,72.5C 75.5,72.1667 76.8333,73.5 76.5,76.5C 79.0249,77.8596 81.3582,79.5262 83.5,81.5 Z"/></g>
<g><path style="opacity:0.829" fill="#8067c4" d="M 137.5,49.5 C 138.159,51.1379 138.826,52.8045 139.5,54.5C 138.624,55.2508 137.624,55.7508 136.5,56C 137.245,58.405 136.578,60.5717 134.5,62.5C 135.025,63.1924 135.692,63.6924 136.5,64C 135.167,64.3333 133.833,64.6667 132.5,65C 132.833,65.3333 133.167,65.6667 133.5,66C 132.584,66.3742 131.75,66.8742 131,67.5C 130.273,71.6889 128.773,75.5222 126.5,79C 126.833,79.3333 127.167,79.6667 127.5,80C 126.584,80.3742 125.75,80.8742 125,81.5C 124.749,83.433 124.249,85.2663 123.5,87C 125.436,87.813 127.436,88.313 129.5,88.5C 126.175,92.9837 122.008,96.6504 117,99.5C 116.517,100.448 116.351,101.448 116.5,102.5C 114.5,102.833 112.5,103.167 110.5,103.5C 110.5,104.5 110.5,105.5 110.5,106.5C 109.167,106.5 107.833,106.5 106.5,106.5C 106.649,107.552 106.483,108.552 106,109.5C 103.833,110.333 102.333,111.833 101.5,114C 100.552,114.483 99.552,114.649 98.5,114.5C 98.5,115.5 98.5,116.5 98.5,117.5C 92.5,117.5 86.5,117.5 80.5,117.5C 80.8333,114.5 79.5,113.167 76.5,113.5C 76.6495,112.448 76.4828,111.448 76,110.5C 74.0514,108.276 71.8847,106.276 69.5,104.5C 68.8728,103.583 68.5394,102.583 68.5,101.5C 67.537,100.637 67.537,99.9698 68.5,99.5C 70.4393,101.618 72.606,101.951 75,100.5C 77.1287,96.4235 78.962,92.5902 80.5,89C 80.1932,87.3182 79.8598,85.6515 79.5,84C 80.3557,82.4053 81.6891,81.572 83.5,81.5C 85.9735,84.3984 88.4735,87.3984 91,90.5C 91.4828,89.552 91.6495,88.552 91.5,87.5C 93.8217,85.5884 96.4884,84.255 99.5,83.5C 99.5,82.5 99.5,81.5 99.5,80.5C 103.09,78.0267 106.756,75.5267 110.5,73C 111.448,72.5172 112.448,72.3505 113.5,72.5C 113.167,69.5 114.5,68.1667 117.5,68.5C 117.167,65.5 118.5,64.1667 121.5,64.5C 121.5,63.5 121.5,62.5 121.5,61.5C 122.833,61.5 124.167,61.5 125.5,61.5C 125.351,60.448 125.517,59.448 126,58.5C 128.743,55.9416 131.91,53.9416 135.5,52.5C 135.942,51.2613 136.609,50.2613 137.5,49.5 Z"/></g>
<g><path style="opacity:0.878" fill="#a968b7" d="M 174.5,91.5 C 173.604,101.048 172.438,110.715 171,120.5C 165.984,128.04 161.817,136.04 158.5,144.5C 156.827,146.086 154.827,146.753 152.5,146.5C 152.737,145.209 152.404,144.209 151.5,143.5C 152.165,137.523 152.498,131.523 152.5,125.5C 153.323,128.977 153.823,132.644 154,136.5C 154.821,129.654 154.654,122.987 153.5,116.5C 153.827,104.95 154.327,93.2834 155,81.5C 161.067,79.0575 167.234,78.8908 173.5,81C 174.456,84.3936 174.789,87.8936 174.5,91.5 Z"/></g>
<g><path style="opacity:0.894" fill="#ab69b2" d="M 174.5,91.5 C 174.667,114.169 174.5,136.836 174,159.5C 172.137,161.376 170.637,163.543 169.5,166C 168.552,166.483 167.552,166.649 166.5,166.5C 166.649,167.552 166.483,168.552 166,169.5C 163.543,170.637 161.376,172.137 159.5,174C 147.171,174.5 134.838,174.667 122.5,174.5C 120.342,172.78 117.675,171.947 114.5,172C 117.605,167.904 120.272,163.571 122.5,159C 122.167,158.667 121.833,158.333 121.5,158C 127.493,156.18 133.493,155.013 139.5,154.5C 139.414,153.504 139.748,152.671 140.5,152C 142.81,151.503 145.143,151.337 147.5,151.5C 147.5,150.167 147.5,148.833 147.5,147.5C 148.833,147.5 150.167,147.5 151.5,147.5C 151.5,146.167 151.5,144.833 151.5,143.5C 152.404,144.209 152.737,145.209 152.5,146.5C 154.827,146.753 156.827,146.086 158.5,144.5C 161.817,136.04 165.984,128.04 171,120.5C 172.438,110.715 173.604,101.048 174.5,91.5 Z"/></g>
<g><path style="opacity:0.008" fill="#7d7d7d" d="M 153.5,116.5 C 154.654,122.987 154.821,129.654 154,136.5C 153.823,132.644 153.323,128.977 152.5,125.5C 152.19,122.287 152.523,119.287 153.5,116.5 Z"/></g>
<g><path style="opacity:0.832" fill="#5a67d0" d="M 4.5,31.5 C 5.16667,63.3359 5.83333,95.3359 6.5,127.5C 7.28107,128.729 7.78107,130.062 8,131.5C 11.3893,123.603 15.2226,115.936 19.5,108.5C 20.325,107.614 21.325,107.281 22.5,107.5C 22.6125,84.6574 23.2791,61.9907 24.5,39.5C 24.1668,72.1735 24.5001,104.84 25.5,137.5C 26.1924,138.025 26.6924,138.692 27,139.5C 27.4974,142.146 27.6641,144.813 27.5,147.5C 28.8333,147.5 30.1667,147.5 31.5,147.5C 31.5,148.833 31.5,150.167 31.5,151.5C 33.8568,151.337 36.1902,151.503 38.5,152C 39.2524,152.671 39.5858,153.504 39.5,154.5C 38.8783,155.627 38.045,156.627 37,157.5C 36.5774,156.044 35.7441,155.544 34.5,156C 35.3452,157.558 34.6785,158.558 32.5,159C 33.5171,160.049 33.6838,161.216 33,162.5C 31.3149,164.017 29.8149,165.684 28.5,167.5C 29.0253,168.192 29.6919,168.692 30.5,169C 29.9103,170.509 29.2436,172.009 28.5,173.5C 25.7581,170.795 24.7581,171.129 25.5,174.5C 22.4552,174.492 19.4552,174.159 16.5,173.5C 16.5,172.5 16.5,171.5 16.5,170.5C 13.5,170.833 12.1667,169.5 12.5,166.5C 11.1667,166.5 9.83333,166.5 8.5,166.5C 8.5,165.167 8.5,163.833 8.5,162.5C 7.5,162.5 6.5,162.5 5.5,162.5C 4.51587,118.863 4.18253,75.1968 4.5,31.5 Z"/></g>
<g><path style="opacity:0.874" fill="#7b68c5" d="M 39.5,154.5 C 61.8333,154.5 84.1667,154.5 106.5,154.5C 99.3225,155.167 91.9891,155.833 84.5,156.5C 86.7662,157.314 89.0995,157.814 91.5,158C 90,158.833 88.8333,160 88,161.5C 86.5044,165.398 85.0044,169.232 83.5,173C 92.0101,173.171 100.343,173.671 108.5,174.5C 80.8333,174.5 53.1667,174.5 25.5,174.5C 24.7581,171.129 25.7581,170.795 28.5,173.5C 29.2436,172.009 29.9103,170.509 30.5,169C 29.6919,168.692 29.0253,168.192 28.5,167.5C 29.8149,165.684 31.3149,164.017 33,162.5C 33.6838,161.216 33.5171,160.049 32.5,159C 34.6785,158.558 35.3452,157.558 34.5,156C 35.7441,155.544 36.5774,156.044 37,157.5C 38.045,156.627 38.8783,155.627 39.5,154.5 Z"/></g>
<g><path style="opacity:0.902" fill="#9469bc" d="M 106.5,154.5 C 117.5,154.5 128.5,154.5 139.5,154.5C 133.493,155.013 127.493,156.18 121.5,158C 121.833,158.333 122.167,158.667 122.5,159C 120.272,163.571 117.605,167.904 114.5,172C 117.675,171.947 120.342,172.78 122.5,174.5C 117.833,174.5 113.167,174.5 108.5,174.5C 100.343,173.671 92.0101,173.171 83.5,173C 85.0044,169.232 86.5044,165.398 88,161.5C 88.8333,160 90,158.833 91.5,158C 89.0995,157.814 86.7662,157.314 84.5,156.5C 91.9891,155.833 99.3225,155.167 106.5,154.5 Z"/></g>
</svg>
